<?xml version="1.0" encoding="UTF-8" standalone="no"?>
<svg width="512px" height="512px" viewBox="0 0 512 512" version="1.1" xmlns="http://www.w3.org/2000/svg" xmlns:xlink="http://www.w3.org/1999/xlink" xmlns:sketch="http://www.bohemiancoding.com/sketch/ns">
    <title>menu-2</title>
    <description>Created with Sketch (http://www.bohemiancoding.com/sketch)</description>
    <defs></defs>
    <g id="Page 1" stroke="none" stroke-width="1" fill="none" fill-rule="evenodd">
        <g id="menu-2" fill="#000000">
            <path d="M82.0075015,163.5 C64.3302466,163.5 50,149.175137 50,131.49986 L50,130.50014 C50,112.826951 64.3316011,98.5 82.0075015,98.5 L429.992498,98.5 C447.669753,98.5 462,112.824863 462,130.50014 L462,131.49986 C462,149.173049 447.668399,163.5 429.992498,163.5 L82.0075015,163.5 Z M82.0075015,223.5 C64.3302466,223.5 50,237.824863 50,255.50014 L50,256.49986 C50,274.173049 64.3316011,288.5 82.0075015,288.5 L429.992498,288.5 C447.669753,288.5 462,274.175137 462,256.49986 L462,255.50014 C462,237.826951 447.668399,223.5 429.992498,223.5 L82.0075015,223.5 Z M82.0075015,348.5 C64.3302466,348.5 50,362.824863 50,380.50014 L50,381.49986 C50,399.173049 64.3316011,413.5 82.0075015,413.5 L429.992498,413.5 C447.669753,413.5 462,399.175137 462,381.49986 L462,380.50014 C462,362.826951 447.668399,348.5 429.992498,348.5 L82.0075015,348.5 Z M82.0075015,348.5" id="menu-icon"></path>
        </g>
    </g>
</svg>