<?xml version="1.0" encoding="utf-8"?>


<!-- The icon can be used freely in both personal and commercial projects with no attribution required, but always appreciated. 
You may NOT sub-license, resell, rent, redistribute or otherwise transfer the icon without express written permission from iconmonstr.com -->


<!DOCTYPE svg PUBLIC "-//W3C//DTD SVG 1.1//EN" "http://www.w3.org/Graphics/SVG/1.1/DTD/svg11.dtd">

<svg version="1.1" xmlns="http://www.w3.org/2000/svg" xmlns:xlink="http://www.w3.org/1999/xlink" x="0px" y="0px"

	 width="512px" height="512px" viewBox="0 0 512 512" enable-background="new 0 0 512 512" xml:space="preserve">

<path id="favorite-3-icon" d="M255.998,453.035C104.158,305.248,61.472,250.888,52.228,195.159

	C40.919,126.985,91.666,58.965,170.738,58.965c33.889,0,64.684,13.021,85.26,34.764c20.575-21.743,51.372-34.764,85.258-34.764

	c78.727,0,129.877,67.68,118.512,136.194C450.725,249.676,410.859,302.312,255.998,453.035z M170.738,98.965

	c-31.93,0-58.846,16.073-72.004,42.996c-33.693,68.938,42.189,138.947,157.264,254.254

	C371.51,280.471,446.879,210.742,413.262,141.961c-13.158-26.923-40.076-42.996-72.006-42.996c-51.453,0-73.387,40.516-85.258,59.65

	C244.847,140.644,224.802,98.965,170.738,98.965z"/>

</svg>

